HIERARCHY
ROOT Hips
{
  OFFSET 89.7758 99.7743 68.2107
  CHANNELS 6 Xposition Yposition Zposition Zrotation Xrotation Yrotation
  JOINT ToSpine
  {
    OFFSET -2.69724 7.43032 -0.144315
    CHANNELS 3 Zrotation Xrotation Yrotation
    JOINT Spine
    {
      OFFSET -0.0310711 10.7595 1.96963
      CHANNELS 3 Zrotation Xrotation Yrotation
      JOINT Spine1
      {
        OFFSET 13.1342 3.43533 0.764692
        CHANNELS 3 Zrotation Xrotation Yrotation
        JOINT Neck
        {
          OFFSET 29.8703 7.82586 -0.130764
          CHANNELS 3 Zrotation Xrotation Yrotation
          JOINT Head
          {
            OFFSET 9.52751 0.295786 -0.907742
            CHANNELS 3 Zrotation Xrotation Yrotation
            End Site
            {
              OFFSET 16.4037 0.713936 2.7358
            }
          }
        }
        JOINT LeftShoulder
        {
          OFFSET 27.5574 4.95586 2.47156
          CHANNELS 3 Zrotation Xrotation Yrotation
          JOINT LeftArm
          {
            OFFSET 1.20734 -0.998971 20.1238
            CHANNELS 3 Zrotation Xrotation Yrotation
            JOINT LeftForeArm
            {
              OFFSET 26.8049 -0.0536703 -0.155908
              CHANNELS 3 Zrotation Xrotation Yrotation
              JOINT LeftHand
              {
                OFFSET 26.6817 0 0.320147
                CHANNELS 3 Zrotation Xrotation Yrotation
                End Site
                {
                  OFFSET 18.6119 0 0.382219
                }
              }
            }
          }
        }
        JOINT RightShoulder
        {
          OFFSET 27.5927 4.71444 -2.65209
          CHANNELS 3 Zrotation Xrotation Yrotation
          JOINT RightArm
          {
            OFFSET 2.83739 -1.17114 -18.7564
            CHANNELS 3 Zrotation Xrotation Yrotation
            JOINT RightForeArm
            {
              OFFSET 28.839 -0.0548439 1.22491
              CHANNELS 3 Zrotation Xrotation Yrotation
              JOINT RightHand
              {
                OFFSET 26.5114 0 -0.101894
                CHANNELS 3 Zrotation Xrotation Yrotation
                End Site
                {
                  OFFSET 18.2168 0 0
                }
              }
            }
          }
        }
      }
    }
  }
  JOINT LeftUpLeg
  {
    OFFSET -4.76168 -1.9167 -10.2353
    CHANNELS 3 Zrotation Xrotation Yrotation
    JOINT LeftLeg
    {
      OFFSET 2.55951 -42.0585 -8.02213
      CHANNELS 3 Zrotation Xrotation Yrotation
      JOINT LeftFoot
      {
        OFFSET 3.16357 -42.5282 -3.95426
        CHANNELS 3 Zrotation Xrotation Yrotation
        JOINT LeftToeBase
        {
          OFFSET 0.346054 -6.02161 12.8035
          CHANNELS 3 Zrotation Xrotation Yrotation
          End Site
          {
            OFFSET 0.134235 -1.35082 5.13018
          }
        }
      }
    }
  }
  JOINT RightUpLeg
  {
    OFFSET -4.94151 -1.41743 10.6446
    CHANNELS 3 Zrotation Xrotation Yrotation
    JOINT RightLeg
    {
      OFFSET -2.56294 -42.0364 -7.94377
      CHANNELS 3 Zrotation Xrotation Yrotation
      JOINT RightFoot
      {
        OFFSET -3.0952 -42.555 -4.02241
        CHANNELS 3 Zrotation Xrotation Yrotation
        JOINT RightToeBase
        {
          OFFSET -0.0828122 -6.13587 12.8035
          CHANNELS 3 Zrotation Xrotation Yrotation
          End Site
          {
            OFFSET -0.131328 -1.35082 5.13018
          }
        }
      }
    }
  }
}
MOTION
Frames:	20
Frame Time:	0.0333333
92.7973 91.9696 25.0509 74.1729 -25.0574 -4.51297 -70.1915 0 88.8779 88.2179 70.5672 -5.03045 3.07865 18.7851 5.33819 -123.787 37.0444 155.174 152.567 78.6818 -124.867 0.184627 -17.2208 -21.9371 -65.1073 31.8611 -150.161 18.7028 -1.73619 -94.3821 0.420957 0.000574779 0.358661 -2.15869 7.93891 41.4617 -134.532 -4.34838 94.2549 14.7328 -0.493439 87.9348 0.58676 0.000330762 0.0646651 -49.5437 15.6539 98.5441 -3.35678 49.585 -3.85284 -2.12191 -17.7742 -1.57864 4.02037 -10.2476 8.27169 -41.3902 -6.34299 95.2695 2.35063 35.8931 11.1727 -0.285334 -2.67219 0.381463 2.4525 -9.53229 -16.4131 
92.7873 91.9493 25.0834 74.0649 -25.0256 -4.46093 -70.1915 0 88.8779 88.1422 70.543 -4.83584 3.19031 18.7827 5.24572 -124.047 37.0986 155.11 153.081 78.8098 -125.455 0.195403 -17.197 -21.8092 -65.1477 31.9872 -150.034 18.1588 -1.6737 -94.3563 0.420957 0.000574779 0.358661 -2.16401 7.91748 41.6041 -134.477 -4.3668 94.4156 14.355 -0.451491 88.0423 0.58676 0.000330762 0.0646651 -49.3212 15.7519 98.4104 -3.37656 49.7287 -3.80806 -1.89089 -17.5738 -1.55207 4.24593 -10.6385 8.24391 -41.2486 -6.3086 95.1468 2.43129 36.0144 11.4215 -0.435567 -2.52727 0.387176 2.4812 -10.1449 -16.9332 
92.7818 91.8516 25.1723 73.8861 -24.9762 -4.57297 -70.1915 0 88.8779 88.0136 70.7436 -4.77738 3.16817 18.9365 5.44383 -124.415 37.469 155.57 150.769 78.7073 -123.423 0.126034 -17.5209 -22.2801 -65.4368 31.9177 -149.198 18.1022 -1.64585 -94.2895 0.420957 0.000574779 0.358661 -2.13446 7.79257 41.6799 -134.447 -4.47384 94.3498 14.3946 -0.345455 88.4576 0.58676 0.000330762 0.0646651 -49.019 15.7391 98.2191 -3.4435 50.0205 -3.90216 -1.89114 -17.4879 -1.5433 4.46143 -11.03 8.33436 -40.7713 -6.26187 95.3994 2.623 36.6669 11.2686 -0.72161 -2.67701 0.428521 2.52064 -10.6215 -17.7242 
92.8289 91.708 25.332 73.7493 -24.7002 -4.77108 -70.1915 0 88.8779 88.3422 70.9886 -5.44724 2.66466 19.0879 5.84055 -124.448 37.7523 156.018 148.255 78.4919 -121.101 0.0734858 -17.699 -22.6919 -65.3078 31.8104 -148.548 18.3463 -1.6096 -94.1126 0.420957 0.000574779 0.358661 -2.05726 7.5188 41.6916 -134.377 -4.75799 94.0113 15.3608 -0.170704 89.0671 0.58676 0.000330762 0.0646651 -48.7461 15.5577 97.8507 -3.57762 50.3363 -4.47934 -2.38222 -17.5804 -1.56579 4.58184 -11.2873 8.65881 -40.1919 -6.37886 95.6169 2.77048 37.7467 10.9133 -0.946406 -3.40212 0.50326 2.48259 -11.0515 -17.5327 
92.8397 91.5223 25.6342 73.6575 -23.8763 -4.73108 -70.1915 0 88.8779 89.1108 70.9234 -6.52408 2.06224 18.9756 6.00956 -124.739 37.5906 156.173 150.592 78.605 -123.374 0.124243 -17.4171 -22.4836 -64.677 32.0373 -148.29 18.1066 -1.53184 -93.9479 0.420957 0.000574779 0.358661 -1.97343 7.23679 41.6557 -133.486 -4.90861 93.7021 15.8239 -0.0253026 89.9125 0.58676 0.000330762 0.0646651 -48.1997 15.4748 97.1064 -3.82876 50.8073 -5.71935 -2.87209 -17.6746 -1.58992 4.71792 -11.6436 9.5289 -39.6182 -6.58839 95.4675 2.95823 39.3024 11.5794 -1.40683 -4.36267 0.612189 2.56904 -13.0266 -20.117 
92.7637 91.2127 26.1496 73.6111 -22.3032 -4.49784 -70.1915 0 88.8779 90.523 70.7061 -8.44907 1.00582 18.6427 6.46221 -124.617 37.5118 156.615 151.919 78.5718 -124.255 0.105635 -17.322 -22.9639 -64.3646 31.9715 -146.622 17.8209 -1.60717 -94.2515 0.420957 0.000574779 0.358661 -1.89614 6.90546 41.8865 -131.993 -4.75341 93.3403 16.66 0.520549 91.3242 0.58676 0.000330762 0.0646651 -47.2156 15.5294 96.0744 -4.03503 51.4969 -6.34994 -2.96444 -17.5594 -1.58132 5.0108 -11.9743 8.39593 -38.7822 -6.61227 95.8887 3.28266 42.0015 12.3431 -2.063 -5.97126 0.767745 2.46316 -16.6034 -25.4215 
92.5941 91.0247 27.0373 73.4589 -19.7504 -4.15618 -70.1915 0 88.8779 90.332 70.5308 -9.45988 0.296747 18.1203 7.50311 -125.253 37.9207 157.388 151.385 78.6735 -123.864 0.102498 -17.1006 -23.4741 -63.796 32.1785 -144.42 18.2862 -1.71111 -94.4298 0.420957 0.000574779 0.358661 -1.78078 6.66472 41.2441 -129.941 -5.80182 92.3254 18.7906 1.40428 93.9136 0.58676 0.000330762 0.0646651 -45.9679 15.3794 94.1317 -4.48416 51.8175 -9.53903 -3.45668 -16.2296 -1.43713 5.97783 -13.9694 10.7104 -38.2018 -6.45555 97.0207 3.73206 44.8846 13.5138 -3.38978 -6.76991 0.916534 1.63033 -22.9282 -28.0484 
92.3208 91.0531 28.4375 73.1075 -16.0536 -3.27366 -70.1915 0 88.8779 88.6536 70.3048 -8.5286 0.485341 17.6853 7.96063 -126.81 38.3536 158.248 151.653 78.8512 -124.915 0.174723 -16.6204 -23.379 -62.05 33.629 -141.758 20.2432 -1.97134 -94.5964 0.420957 0.000574779 0.358661 -1.71172 6.45072 41.0776 -127.082 -6.58539 90.8232 22.1354 3.08109 97.276 0.58676 0.000330762 0.0646651 -44.2633 15.3727 91.4932 -4.91792 51.3266 -13.915 -4.48662 -14.3571 -1.22484 6.96552 -15.6315 13.7755 -38.2231 -5.56349 98.5795 4.49802 47.5899 16.7269 -6.26323 -7.09404 1.11784 0.547722 -28.1617 -32.6369 
92.032 91.1553 30.4974 72.5636 -11.3313 -1.92185 -70.1915 0 88.8779 87.2111 70.3024 -7.20388 0.819792 17.7309 7.7242 -128.025 38.087 158.557 158.263 79.2307 -131.662 0.20177 -16.2621 -23.7599 -60.3815 35.0672 -137.615 21.768 -2.35614 -95.1423 0.420957 0.000574779 0.358661 -1.65558 6.05164 41.9886 -121.961 -6.84415 89.3441 24.2129 5.09835 100.905 0.58676 0.000330762 0.0646651 -42.2439 15.5938 88.6072 -4.74745 49.768 -15.2589 -4.69781 -12.188 -0.955459 6.96938 -15.5174 11.1342 -38.9855 -3.94098 100.114 4.56763 49.1566 15.8177 -8.42399 -8.39773 1.27009 0.557384 -30.0766 -29.5028 
91.7669 91.5918 33.1918 72.2757 -5.96267 -0.0735273 -70.1915 0 88.8779 88.0992 70.4765 -7.51668 0.932084 18.2926 6.51094 -129.267 37.0661 158.935 168.493 78.9321 -142.008 0.309871 -15.4543 -23.901 -59.2069 36.8164 -132.866 22.6869 -2.34913 -94.8665 0.420957 0.000574779 0.358661 -1.71106 6.22643 42.0757 -114.23 -9.04444 85.274 25.7599 6.86157 103.625 0.58676 0.000330762 0.0646651 -40.7601 15.7732 85.7099 -4.21056 46.6272 -14.2354 -3.95342 -8.85847 -0.592544 6.70756 -14.8009 5.98675 -41.3171 -1.45001 102.639 3.99487 48.2266 11.3405 -5.8394 -10.6852 1.21926 1.69687 -25.2044 -22.1729 
91.5207 92.2185 36.3036 72.1992 -0.0103813 2.41872 -70.1915 0 88.8779 92.6828 70.767 -10.8454 0.312492 19.2965 4.69586 -129.051 35.6981 159.083 173.315 77.8741 -146.196 0.452242 -14.6103 -23.2724 -59.0114 37.9381 -128.502 22.6717 -1.87761 -93.7587 0.420957 0.000574779 0.358661 -1.84153 6.94514 40.9471 -105.713 -13.2977 78.3686 28.1425 7.41588 103.295 0.58676 0.000330762 0.0646651 -38.6582 16.1352 84.1087 -3.62656 43.7156 -12.1099 -3.64114 -4.63143 -0.122715 5.38505 -12.4515 7.1645 -44.643 2.47477 105.491 3.57805 46.4081 10.1449 -3.85284 -12.3411 1.18048 1.99118 -20.4301 -30.0438 
91.2963 92.5344 39.3892 71.9704 6.54717 4.56345 -70.1915 0 88.8779 98.2809 71.136 -15.8036 -0.63241 20.5185 3.08108 -128.431 34.4923 159.376 174.808 76.7451 -146.656 0.521989 -14.2757 -22.605 -60.8254 36.0951 -126.428 22.8039 -1.71822 -93.3675 0.420957 0.000574779 0.358661 -1.83966 7.43883 39.1074 -96.1305 -20.1426 71.8578 29.0027 5.3795 99.1986 0.58676 0.000330762 0.0646651 -34.7696 16.8611 87.5783 -3.05121 45.6281 -7.95436 -4.55088 -3.77933 0.0452963 3.78627 -10.6136 12.9635 -46.9388 4.83866 105.081 2.70973 45.2719 3.9267 -2.95717 -14.8317 1.33307 2.7692 -16.6193 -29.8063 
90.9557 92.7519 42.0409 71.484 14.1869 7.13423 -70.1915 0 88.8779 103.396 70.4017 -19.7758 -1.33168 20.8934 0.901628 -128.278 33.7915 160.916 170.603 75.368 -142.578 0.627888 -13.864 -21.0917 -62.9037 33.2998 -129.745 22.4951 -1.74699 -93.5159 0.420957 0.000574779 0.358661 -1.87744 7.91332 37.9931 -85.4893 -27.7794 67.4662 26.7388 1.27729 92.7113 0.58676 0.000330762 0.0646651 -29.7384 15.2899 93.1754 -5.27436 56.1623 -5.0769 -4.9424 -7.22076 -0.327183 4.29617 -11.4331 13.1259 -47.7641 5.46453 101.275 1.40779 44.7731 -4.81585 -0.011831 -17.6494 1.53063 2.66882 -10.1171 -20.8589 
90.7159 93.026 44.3596 70.8288 21.8562 10.2852 -70.1915 0 88.8779 106.923 69.2247 -22.9886 -1.95789 20.3806 0.0876477 -126.298 32.8507 161.228 167.881 74.2061 -139.01 0.691408 -13.7324 -19.4973 -64.9744 29.8568 -138.552 20.6589 -1.41411 -92.755 0.420957 0.000574779 0.358661 -1.98938 8.53575 37.4684 -75.7656 -36.0777 64.8731 21.4888 -2.02658 84.2094 0.58676 0.000330762 0.0646651 -26.9124 12.4391 97.3794 -11.3664 70.5802 -3.29234 -5.21139 -9.13045 -0.551176 5.91304 -13.7318 10.789 -47.9691 6.57429 98.6734 1.30505 45.7488 -6.43801 -0.394872 -15.8678 1.4146 3.05995 -12.8699 -25.4856 
90.7742 93.6404 46.433 68.8382 28.056 13.6708 -70.1915 0 88.8779 104.35 68.6836 -21.7885 -1.29785 19.5752 -0.0444764 -123.755 31.1685 159.093 168.476 73.2919 -137.967 0.734018 -14.1123 -17.1997 -67.7977 25.7675 -149.837 18.9307 0.226052 -89.4251 0.420957 0.000574779 0.358661 -2.07834 8.66904 38.117 -70.8165 -44.2206 62.574 14.8739 -4.10393 74.9844 0.58676 0.000330762 0.0646651 -28.3625 9.71826 102.389 -20.0421 77.7852 3.73397 -4.94034 -6.50114 -0.238898 6.21404 -13.7899 3.63718 -45.8388 7.84742 97.2723 1.32456 48.3042 -7.12762 -1.15477 -9.44025 0.90583 1.79602 -20.6008 -26.9455 
90.6606 94.4277 48.5038 65.8464 32.9643 19.0432 -70.1915 0 88.8779 103.583 67.0364 -22.9792 -1.4056 17.2299 1.81843 -122.389 29.3995 157.132 167.978 72.0934 -136.234 0.865744 -14.3675 -13.2852 -70.4107 23.0907 -160.677 16.9734 2.62003 -80.1282 0.420957 0.000574779 0.358661 -2.17754 8.26744 40.5655 -70.9448 -48.1325 58.1929 5.55152 -2.17543 68.8481 0.58676 0.000330762 0.0646651 -33.3728 8.25458 105.649 -13.4555 72.7065 -0.264665 -0.791833 -0.38078 -0.0156108 7.72702 -15.7893 -8.68263 -38.9201 9.38173 93.5429 1.00397 55.0309 -10.267 -1.20366 -0.0561262 0.384639 2.37161 -21.3711 -15.7123 
89.937 95.3794 50.747 61.8412 35.2869 25.8991 -70.1915 0 88.8779 105.829 64.564 -28.7631 -3.37102 13.3649 7.36294 -122.005 27.7399 156.263 170.209 70.9281 -136.541 0.935908 -15.4212 -10.6396 -73.6549 21.1869 -166.883 14.8392 7.21645 -64.2311 0.420957 0.000574779 0.358661 -2.28418 8.34774 41.5565 -73.8542 -48.6048 51.2822 -4.35259 1.57825 69.389 0.58676 0.000330762 0.0646651 -38.9955 8.765 106.986 -5.56813 59.3127 -6.54641 -2.45564 -8.43137 -0.942467 4.97468 -7.19833 -11.71 -26.9985 10.2325 90.0057 4.95877 64.8848 -6.12143 1.8427 12.3614 -1.40965 1.11436 -6.44347 -9.16475 
88.7145 96.5733 53.7646 56.3641 34.7843 34.6693 -70.1915 0 88.8779 108.086 62.4505 -34.135 -5.12246 8.9921 14.3046 -124.337 26.3359 154.001 177.81 70.7447 -144.292 0.924123 -17.1002 -10.3438 -77.4927 15.823 -169.293 12.3585 12.9323 -43.4387 0.420957 0.000574779 0.358661 -2.18723 9.03228 38.3278 -76.9989 -49.3963 46.1271 -11.1785 3.44577 72.696 0.58676 0.000330762 0.0646651 -36.9992 11.4136 105.603 -4.21811 50.2897 -9.43589 -3.5832 -18.1208 -1.63854 0.160243 -0.257685 -1.55108 -11.2511 11.6254 86.7155 22.2477 75.3229 3.01763 9.42288 14.7822 -3.25933 5.512 -14.7159 -28.1951 
87.4348 98.0191 57.3179 54.124 31.6508 44.9641 -70.1915 0 88.8779 118.606 59.6644 -41.377 -7.37976 6.93568 18.2429 -128.892 25.5875 150.381 -175.893 70.6906 -153.364 0.80329 -18.3085 -11.7451 -81.5895 11.9764 -166.35 7.56046 18.9105 -27.2262 0.420957 0.000574779 0.358661 -2.02175 9.77936 34.5633 -77.5507 -49.7502 46.6596 -16.8268 4.69312 74.5387 0.58676 0.000330762 0.0646651 -29.6879 18.2223 99.102 -3.82462 47.8114 -9.81017 0.934124 -15.7956 -1.33725 1.1622 -4.92745 7.73652 4.15723 13.3153 79.6099 82.8399 84.9982 -47.5003 8.50275 8.90516 -2.34548 -2.80427 -31.7149 -45.6674 
85.7462 99.7127 60.1585 57.523 26.6359 51.6553 -70.1915 0 88.8779 135.391 56.2959 -51.2991 -11.7365 8.63591 18.6149 -133.084 25.6512 148.009 -174.802 70.5764 -157.273 0.553464 -18.6534 -14.8125 -84.3625 10.8714 -154.944 7.46053 19.6581 -26.1048 0.420957 0.000574779 0.358661 -1.94719 10.3886 32.4773 -74.6402 -47.8802 52.8331 -21.7891 5.95656 75.1453 0.58676 0.000330762 0.0646651 -24.5001 25.6792 90.1357 -3.27685 45.3376 -7.66793 1.17819 -14.1501 -1.22341 0.38914 -4.02145 9.15972 14.3253 13.3737 74.1904 155.234 73.5303 -126.793 1.63298 7.17202 -0.706421 -3.5543 -40.0613 -40.8907 
